<?xml version="1.0" standalone="no"?>
<!DOCTYPE svg PUBLIC "-//W3C//DTD SVG 20010904//EN"
 "http://www.w3.org/TR/2001/REC-SVG-20010904/DTD/svg10.dtd">
<svg version="1.0" xmlns="http://www.w3.org/2000/svg"
 width="1024.000000pt" height="1024.000000pt" viewBox="0 0 1024.000000 1024.000000"
 preserveAspectRatio="xMidYMid meet">
<metadata>
Created by potrace 1.11, written by Peter Selinger 2001-2013
</metadata>
<g transform="translate(0.000000,1024.000000) scale(0.100000,-0.100000)"
fill="#000000" stroke="none">
<path d="M670 8649 c-30 -3 -71 -13 -91 -22 -53 -22 -117 -83 -142 -136 l-22
-46 -2 -3165 c-2 -3415 -4 -3226 50 -3343 36 -77 101 -158 172 -216 34 -28 67
-51 73 -51 6 0 12 -4 14 -8 4 -10 94 -48 133 -56 17 -4 41 -9 55 -12 14 -2
1972 -5 4352 -5 3423 -1 4335 2 4365 12 90 29 155 91 185 177 17 50 19 78 16
266 -3 203 -4 213 -29 267 -32 68 -94 121 -168 143 -50 15 -427 16 -4197 16
l-4143 0 0 2970 c0 1633 -3 2980 -6 2992 -30 99 -90 167 -172 198 -44 16 -82
20 -221 22 -92 2 -192 0 -222 -3z"/>
<path d="M7707 8064 c-1 -1 -16 -4 -33 -7 -66 -10 -138 -68 -177 -141 l-21
-41 0 -2165 c1 -2437 -7 -2201 80 -2284 72 -69 101 -75 374 -72 254 3 273 6
339 62 17 14 44 47 59 73 l27 46 1 2155 c0 1185 -3 2170 -7 2189 -17 76 -107
163 -184 177 -33 6 -452 13 -458 8z"/>
<path d="M4126 7465 c-55 -16 -122 -69 -153 -122 l-28 -48 0 -1880 0 -1880 23
-42 c32 -61 110 -119 175 -132 30 -6 145 -9 272 -7 248 3 266 7 335 76 80 80
73 -109 74 1985 0 1826 0 1871 -19 1910 -11 21 -36 56 -57 77 -67 67 -84 70
-350 72 -139 1 -252 -3 -272 -9z"/>
<path d="M5866 6279 c-53 -23 -111 -79 -136 -130 -19 -42 -20 -59 -20 -1319 0
-1369 -2 -1311 48 -1371 34 -42 77 -79 92 -79 9 0 22 -6 29 -12 9 -10 77 -13
269 -13 245 0 259 1 297 22 55 30 101 76 126 126 l22 41 -1 1271 c0 698 -3
1280 -6 1292 -14 63 -80 141 -144 170 -31 14 -76 17 -287 18 -218 1 -255 -1
-289 -16z"/>
<path d="M2341 5104 c-59 -21 -125 -84 -147 -142 -17 -44 -18 -92 -18 -732 l0
-685 26 -50 c14 -27 44 -64 65 -82 71 -57 102 -61 368 -59 221 3 243 4 280 24
53 27 99 77 124 133 20 45 21 63 20 730 -1 766 3 724 -74 803 -70 71 -88 75
-360 75 -192 0 -249 -3 -284 -15z"/>
</g>
</svg>
